HIERARCHY
ROOT Hips
{
OFFSET -0.1795 -22.3333 2.8219000000000003
	CHANNELS 6 Xposition Yposition Zposition Zrotation Yrotation Xrotation 
	JOINT LeftUpLeg
	{
OFFSET 6.952 -9.140600000000001 -0.6815
		CHANNELS 3 Zrotation Yrotation Xrotation
		JOINT LeftLeg
		{
OFFSET 3.4277 -37.5199 -0.4496
			CHANNELS 3 Zrotation Yrotation Xrotation
			JOINT LeftFoot
			{
OFFSET -1.3596000000000001 -39.7961 -4.3693
				CHANNELS 3 Zrotation Yrotation Xrotation
				JOINT LeftToe
				{
OFFSET 2.6358 -5.5791 11.9288
					CHANNELS 3 Zrotation Yrotation Xrotation
					End Site
					{
OFFSET 0.0 0.0 0.0
					}
				}
			}
		}
	}
	JOINT RightUpLeg
	{
OFFSET -6.7669999999999995 -9.052200000000001 -0.432
		CHANNELS 3 Zrotation Yrotation Xrotation
		JOINT RightLeg
		{
OFFSET -3.8289999999999997 -38.2569 -0.885
			CHANNELS 3 Zrotation Yrotation Xrotation
			JOINT RightFoot
			{
OFFSET 1.5774 -39.8415 -4.2312
				CHANNELS 3 Zrotation Yrotation Xrotation
				JOINT RightToe
				{
OFFSET -2.5372 -4.8144 12.3348
					CHANNELS 3 Zrotation Yrotation Xrotation
					End Site
					{
OFFSET 0.0 0.0 0.0
					}
				}
			}
		}
	}
	JOINT Spine
	{
OFFSET -0.2533 10.8963 -2.6696
		CHANNELS 3 Zrotation Yrotation Xrotation
		JOINT Spine1
		{
OFFSET 0.5487 13.517999999999999 0.1092
			CHANNELS 3 Zrotation Yrotation Xrotation
			JOINT Spine2
			{
OFFSET 0.1457 5.292199999999999 2.5425
				CHANNELS 3 Zrotation Yrotation Xrotation
				JOINT Neck
				{
OFFSET -0.2778 21.387 -4.2857
					CHANNELS 3 Zrotation Yrotation Xrotation
					JOINT Head
					{
OFFSET 0.5152 6.497 5.1349
						CHANNELS 3 Zrotation Yrotation Xrotation
						End Site
						{
OFFSET 0.0 0.0 0.0
						}
					}
				}
				JOINT LeftShoulder
				{
OFFSET 7.8845 12.1749 -3.4090000000000003
					CHANNELS 3 Zrotation Yrotation Xrotation
					JOINT LeftArm
					{
OFFSET 9.0977 3.0469 -0.8867999999999999
						CHANNELS 3 Zrotation Yrotation Xrotation
						JOINT LeftForeArm
						{
OFFSET 25.9612 -1.2772000000000001 -2.7456
							CHANNELS 3 Zrotation Yrotation Xrotation
							JOINT LeftHand
							{
OFFSET 24.9234 0.8986 -0.1171
								CHANNELS 3 Zrotation Yrotation Xrotation
								End Site
								{
OFFSET 0.0 0.0 0.0
								}
							}
						}
					}
				}
				JOINT RightShoulder
				{
OFFSET -8.1759 11.8833 -3.8614999999999995
					CHANNELS 3 Zrotation Yrotation Xrotation
					JOINT RightArm
					{
OFFSET -9.6012 3.2550999999999997 -0.9143
						CHANNELS 3 Zrotation Yrotation Xrotation
						JOINT RightForeArm
						{
OFFSET -25.374200000000002 -1.3329 -2.1401
							CHANNELS 3 Zrotation Yrotation Xrotation
							JOINT RightHand
							{
OFFSET -25.5298 0.7772 -0.5559
								CHANNELS 3 Zrotation Yrotation Xrotation
								End Site
								{
OFFSET 0.0 0.0 0.0
								}
							}
						}
					}
				}
			}
		}
	}
}
MOTION
Frames: 14
Frame Time: 0.050000
15.7633 79.3314 -12.5109 2.655723 -12.064039 4.728204 11.301194 2.777999 -44.683811 1.343223 0.252626 57.439390 5.476647 9.728998 -8.757502 0.000000 0.000000 0.000000 -16.857978 1.058443 -46.593393 24.358293 -10.003370 53.859175 -20.181224 -43.778683 5.590599 0.000000 0.000000 0.000000 6.771140 -2.622764 56.351701 4.280965 -1.762059 -4.606986 -1.233956 -3.970542 9.572311 -8.504143 4.700057 -44.252231 0.000000 0.000000 0.000000 -9.491194 -19.643779 9.309320 -65.966192 -42.353096 18.793201 97.892191 -36.014477 -32.248020 0.000000 0.000000 0.000000 -2.738441 18.327469 6.002360 64.500152 40.378573 15.477216 -71.391608 20.881893 -13.574875 0.000000 0.000000 0.000000
15.1644 78.8678 -12.6069 2.485955 -11.081101 4.428512 11.042824 2.486688 -45.044640 2.195824 -0.614034 58.708267 5.337929 9.238975 -9.200635 0.000000 0.000000 0.000000 -16.569803 0.936383 -46.821930 24.538265 -10.565334 54.847854 -20.250444 -44.079858 4.942826 0.000000 0.000000 0.000000 6.195804 -2.603374 56.231977 3.847865 -1.598786 -4.184083 -1.053544 -3.680909 9.003626 -8.386249 4.713293 -44.200596 0.000000 0.000000 0.000000 -10.119830 -19.717052 9.350286 -64.477982 -41.499788 17.511670 99.873919 -37.470377 -35.334600 0.000000 0.000000 0.000000 -2.586833 18.653571 6.119821 64.358196 40.828498 15.921630 -72.384167 20.494969 -13.412249 0.000000 0.000000 0.000000
14.7023 78.41409999999999 -12.667800000000002 2.426239 -10.245214 3.993299 11.027432 2.315629 -45.203481 2.609958 -1.159648 59.546297 5.175379 8.717250 -9.474079 0.000000 0.000000 0.000000 -16.249845 0.853356 -46.935111 24.129917 -10.774944 56.185734 -20.100731 -44.102857 4.105195 0.000000 0.000000 0.000000 5.647085 -2.547023 56.432131 3.520637 -1.471173 -3.916130 -0.969534 -3.584090 8.983754 -8.672962 4.840531 -44.081064 0.000000 0.000000 0.000000 -10.307687 -19.513905 9.207532 -63.541581 -41.645388 17.187497 100.385666 -38.285129 -36.750622 0.000000 0.000000 0.000000 -2.736917 18.842836 6.174790 64.320284 41.377032 16.335407 -73.344428 21.465338 -14.245645 0.000000 0.000000 0.000000
14.352400000000001 78.1675 -12.723400000000002 2.337107 -9.415741 3.476747 10.561678 1.936120 -45.193615 3.070417 -1.744950 60.322976 4.997416 8.049800 -10.127423 0.000000 0.000000 0.000000 -15.689819 0.846858 -46.734389 23.728969 -10.907711 57.205862 -19.940493 -44.099322 3.268971 0.000000 0.000000 0.000000 5.006166 -2.436072 56.451220 3.285130 -1.407312 -3.079241 -1.013573 -3.187671 8.307046 -8.438204 4.834122 -43.542791 0.000000 0.000000 0.000000 -10.628803 -19.556754 9.125421 -62.350485 -41.109639 16.334119 100.515859 -39.185920 -38.329615 0.000000 0.000000 0.000000 -2.545635 18.683881 6.142040 64.356459 41.469868 16.646929 -75.131131 22.028929 -14.996666 0.000000 0.000000 0.000000
14.0708 78.0311 -12.823100000000002 2.284404 -8.412141 3.196302 10.427526 1.662617 -45.246882 2.935098 -1.959095 60.844247 5.051844 8.010221 -10.598028 0.000000 0.000000 0.000000 -15.436959 0.697706 -46.464873 23.475367 -11.178158 58.019085 -20.224651 -44.538154 3.187135 0.000000 0.000000 0.000000 4.460368 -2.431918 56.413186 3.134197 -1.339029 -3.080562 -0.858177 -3.175480 8.739176 -8.858059 4.990511 -43.831827 0.000000 0.000000 0.000000 -10.812100 -19.187126 8.930815 -61.630386 -40.983465 15.906421 98.863206 -40.064717 -38.327278 0.000000 0.000000 0.000000 -2.857725 18.267659 5.997280 64.872620 41.941031 17.129159 -76.803608 23.150343 -16.177677 0.000000 0.000000 0.000000
13.861399999999998 78.0934 -13.000300000000001 2.025739 -7.419128 2.945865 10.425648 1.455854 -45.374007 2.966685 -2.301879 61.155886 4.762853 7.253470 -10.424703 0.000000 0.000000 0.000000 -15.095831 0.580817 -45.928532 23.284338 -11.304276 57.853564 -20.551036 -44.977701 3.226756 0.000000 0.000000 0.000000 4.071328 -2.516676 56.511488 2.935697 -1.259150 -2.857151 -0.979723 -3.418584 8.670295 -8.821659 4.989100 -43.706569 0.000000 0.000000 0.000000 -10.311145 -18.754021 8.612533 -60.473701 -40.852454 15.421523 96.950233 -40.263055 -37.419156 0.000000 0.000000 0.000000 -2.925650 18.389229 6.030166 65.252256 42.332840 17.534690 -78.054059 23.480710 -16.791600 0.000000 0.000000 0.000000
13.718 78.141 -13.212299999999999 1.811337 -6.483841 2.794659 10.659240 1.355884 -45.495348 2.107022 -1.959510 61.320370 4.809254 7.209740 -10.804116 0.000000 0.000000 0.000000 -14.954637 0.420042 -45.912988 23.181741 -11.582678 58.101975 -21.093465 -45.396438 4.085419 0.000000 0.000000 0.000000 3.518235 -2.496993 56.646531 2.778157 -1.190044 -2.780241 -0.785820 -3.050950 8.939505 -8.964429 5.083143 -43.890970 0.000000 0.000000 0.000000 -9.593588 -19.094475 8.539478 -59.252594 -41.409417 15.284898 94.565486 -40.114228 -36.131590 0.000000 0.000000 0.000000 -3.289690 17.872976 5.859262 65.781294 42.418263 17.902312 -79.102583 23.675944 -17.021413 0.000000 0.000000 0.000000
13.6411 78.2946 -13.4103 1.643037 -5.975770 2.782240 10.482673 1.175891 -45.590882 1.804102 -1.885152 61.166262 4.752057 7.045939 -10.775193 0.000000 0.000000 0.000000 -14.549103 0.448918 -45.517077 22.763975 -11.374440 57.738313 -21.173342 -45.589743 3.883346 0.000000 0.000000 0.000000 3.036692 -2.381361 56.559087 2.511760 -1.070381 -2.766090 -0.827943 -3.092927 9.150740 -8.939077 5.093028 -43.474477 0.000000 0.000000 0.000000 -9.065388 -18.983826 8.385709 -58.402428 -41.350470 14.930077 92.230265 -40.443827 -35.110655 0.000000 0.000000 0.000000 -3.327579 18.110030 5.931401 64.792861 42.458727 17.567944 -78.884905 23.570413 -16.837088 0.000000 0.000000 0.000000
13.629 78.3943 -13.529 1.525152 -6.034902 2.598979 10.530124 1.202769 -45.409337 1.485753 -1.629104 61.124933 4.770111 7.056136 -10.887265 0.000000 0.000000 0.000000 -14.337365 0.530520 -45.300128 22.618294 -11.179221 57.419162 -21.188867 -45.706293 3.685476 0.000000 0.000000 0.000000 2.273041 -1.941759 56.665305 2.146382 -0.913022 -2.664960 -0.782524 -2.794604 9.136862 -8.692393 5.044344 -43.292677 0.000000 0.000000 0.000000 -8.748375 -19.351178 8.440615 -57.046796 -41.187006 14.330519 90.023464 -41.242619 -34.803376 0.000000 0.000000 0.000000 -3.300334 18.102601 5.930158 63.519171 42.211477 17.020285 -77.321985 23.640180 -16.368595 0.000000 0.000000 0.000000
13.644200000000001 78.57990000000001 -13.5598 1.396281 -6.194667 2.256543 10.271641 1.105242 -44.833794 1.470099 -1.553417 60.597902 4.721765 6.942467 -10.879053 0.000000 0.000000 0.000000 -14.132005 0.617557 -44.546777 22.351641 -10.802966 56.848379 -21.033033 -45.598963 3.334873 0.000000 0.000000 0.000000 1.690141 -1.568810 56.811459 2.000100 -0.863659 -2.298636 -0.906727 -2.841118 8.991932 -8.500920 4.990046 -42.915741 0.000000 0.000000 0.000000 -8.492727 -19.731950 8.556001 -56.068266 -40.547030 13.638539 88.339963 -41.755219 -34.388869 0.000000 0.000000 0.000000 -2.979082 18.703370 6.126756 61.801331 41.641911 16.066406 -75.789312 23.667374 -16.032830 0.000000 0.000000 0.000000
13.661999999999999 78.8263 -13.5197 1.290430 -6.181273 1.899545 10.077830 0.984944 -44.023135 1.626883 -1.657388 60.237140 4.838081 7.251430 -10.900966 0.000000 0.000000 0.000000 -13.815174 0.698134 -43.741214 22.102064 -10.445352 55.952814 -21.058864 -45.654064 3.227387 0.000000 0.000000 0.000000 1.252094 -1.328318 56.705233 1.718072 -0.736296 -2.357311 -0.767680 -2.988778 9.371518 -8.489150 4.974053 -43.229943 0.000000 0.000000 0.000000 -8.922822 -19.792883 8.674259 -55.318842 -39.432399 12.709883 87.370376 -43.215569 -35.111180 0.000000 0.000000 0.000000 -2.998005 18.815938 6.146833 60.898140 40.711833 15.114435 -73.073499 23.983547 -15.546234 0.000000 0.000000 0.000000
13.6589 79.0654 -13.4508 1.174416 -6.391384 1.591687 10.150611 1.027375 -43.282807 1.545214 -1.517122 59.892159 4.841995 7.329327 -10.729418 0.000000 0.000000 0.000000 -13.424896 0.847277 -43.009116 21.686176 -9.966865 55.334017 -20.860069 -45.495628 2.814227 0.000000 0.000000 0.000000 0.764559 -0.993558 56.415608 1.714473 -0.732555 -2.493693 -0.942346 -3.219745 9.712210 -8.502424 4.960881 -43.274945 0.000000 0.000000 0.000000 -8.923220 -19.492985 8.570095 -54.913937 -38.185467 11.875811 86.959037 -44.813288 -36.215165 0.000000 0.000000 0.000000 -2.539961 19.293263 6.308394 60.727627 39.708879 14.390936 -70.800148 24.144627 -15.094553 0.000000 0.000000 0.000000
13.6469 79.3291 -13.378200000000001 0.958344 -6.720131 1.578428 10.285645 1.116326 -42.661908 1.520208 -1.381420 59.367383 5.055947 7.943376 -10.651586 0.000000 0.000000 0.000000 -12.856335 1.085785 -42.577273 21.293415 -9.482760 54.650765 -20.384363 -44.863200 2.416209 0.000000 0.000000 0.000000 0.296379 -0.646752 55.796254 1.564098 -0.669700 -2.398235 -0.792357 -3.118384 9.905118 -8.321089 4.899448 -43.184178 0.000000 0.000000 0.000000 -8.153018 -19.113343 8.270425 -55.469199 -37.111696 11.478378 87.388109 -46.102435 -37.602552 0.000000 0.000000 0.000000 -2.541702 19.200953 6.277113 61.412878 38.601744 13.929671 -68.798778 24.237324 -14.592319 0.000000 0.000000 0.000000
13.6439 79.59 -13.3062 0.821828 -7.144880 1.397936 10.550117 1.256393 -41.743402 1.387595 -1.137799 58.814420 5.112977 8.072850 -10.830344 0.000000 0.000000 0.000000 -12.330887 1.318185 -42.174946 20.986094 -9.108060 54.491123 -20.284170 -44.687920 2.397221 0.000000 0.000000 0.000000 -0.130231 -0.298688 55.422697 1.369594 -0.569612 -2.943431 -0.837764 -3.203518 10.685919 -8.054284 4.795777 -43.348238 0.000000 0.000000 0.000000 -7.320445 -18.485734 7.881988 -56.445026 -36.313977 11.316386 87.686748 -46.878257 -38.296174 0.000000 0.000000 0.000000 -2.279341 18.988279 6.212033 61.925747 37.700622 13.433166 -67.375569 24.829501 -14.589853 0.000000 0.000000 0.000000
